<svg xmlns="http://www.w3.org/2000/svg" aria-hidden="true" style="position:absolute;width:0;height:0;overflow:hidden"><defs><symbol id="icon-x" viewBox="0 0 32 32"><path fill="#fff" d="M4.292 5.708A.991.991 0 0 1 3.999 5a1.006 1.006 0 0 1 .618-.925 1.01 1.01 0 0 1 .766 0c.121.05.232.124.325.217L16 14.586 26.292 4.292A.991.991 0 0 1 27 3.999a1.006 1.006 0 0 1 .925.618 1.006 1.006 0 0 1-.217 1.091L17.414 16l10.294 10.292a.991.991 0 0 1 .293.708 1.006 1.006 0 0 1-.618.925 1.01 1.01 0 0 1-.766 0 1.002 1.002 0 0 1-.325-.217L16 17.414 5.708 27.708a.991.991 0 0 1-.708.293 1.006 1.006 0 0 1-.925-.618 1.006 1.006 0 0 1 .217-1.091L14.586 16 4.292 5.708z" style="fill:var(--color1, #fff)"/></symbol><symbol id="icon-baidu" viewBox="0 0 32 32"><path fill="#2319dc" d="M5.749 16.867c3.48-.749 3-4.912 2.901-5.821-.171-1.4-1.821-3.851-4.059-3.653-2.813.248-3.224 4.32-3.224 4.32-.383 1.88.909 5.901 4.381 5.153zm6.46-6.988c1.92 0 3.472-2.213 3.472-4.947 0-2.72-1.547-4.933-3.467-4.933S8.733 2.2 8.733 4.934s1.56 4.947 3.48 4.947zm8.28.328c2.573.347 4.216-2.4 4.549-4.48.333-2.067-1.333-4.48-3.147-4.893-1.827-.421-4.08 2.499-4.307 4.4-.24 2.333.333 4.653 2.893 4.983zm10.178 3.505c0-.995-.817-3.991-3.88-3.991-3.06 0-3.48 2.827-3.48 4.827 0 1.907.157 4.56 3.98 4.48 3.807-.093 3.391-4.32 3.391-5.32zM26.8 22.427s-3.98-3.08-6.301-6.4c-3.147-4.903-7.62-2.907-9.112-.421-1.493 2.511-3.813 4.083-4.14 4.503-.333.413-4.8 2.827-3.805 7.227 1 4.4 4.48 4.32 4.48 4.32s2.56.253 5.547-.413 5.547.16 5.547.16 6.943 2.333 8.864-2.147c1.899-4.493-1.08-6.813-1.08-6.813z" style="fill:var(--color2, #2319dc)"/></symbol></defs></svg>