<svg aria-hidden="true" style="position: absolute; width: 0; height: 0; overflow: hidden;" version="1.1" xmlns="http://www.w3.org/2000/svg" xmlns:xlink="http://www.w3.org/1999/xlink">
<defs>
<symbol id="icon-x" viewBox="0 0 32 32">
<path fill="#fff" style="fill: var(--color1, #fff)" d="M4.292 5.708c-0.093-0.093-0.167-0.203-0.217-0.325s-0.076-0.252-0.076-0.383c0-0.131 0.026-0.262 0.076-0.383s0.124-0.232 0.217-0.325c0.093-0.093 0.203-0.167 0.325-0.217s0.252-0.076 0.383-0.076c0.131 0 0.262 0.026 0.383 0.076s0.232 0.124 0.325 0.217l10.292 10.294 10.292-10.294c0.093-0.093 0.203-0.167 0.325-0.217s0.252-0.076 0.383-0.076 0.262 0.026 0.383 0.076c0.121 0.050 0.232 0.124 0.325 0.217s0.167 0.203 0.217 0.325c0.050 0.121 0.076 0.252 0.076 0.383s-0.026 0.262-0.076 0.383c-0.050 0.121-0.124 0.232-0.217 0.325l-10.294 10.292 10.294 10.292c0.093 0.093 0.167 0.203 0.217 0.325s0.076 0.252 0.076 0.383c0 0.131-0.026 0.262-0.076 0.383s-0.124 0.232-0.217 0.325c-0.093 0.093-0.203 0.167-0.325 0.217s-0.252 0.076-0.383 0.076-0.262-0.026-0.383-0.076c-0.121-0.050-0.232-0.124-0.325-0.217l-10.292-10.294-10.292 10.294c-0.093 0.093-0.203 0.167-0.325 0.217s-0.252 0.076-0.383 0.076-0.262-0.026-0.383-0.076c-0.121-0.050-0.232-0.124-0.325-0.217s-0.167-0.203-0.217-0.325c-0.050-0.121-0.076-0.252-0.076-0.383s0.026-0.262 0.076-0.383 0.124-0.232 0.217-0.325l10.294-10.292-10.294-10.292z"></path>
</symbol>
<symbol id="icon-baidu" viewBox="0 0 32 32">
<path fill="#2319dc" style="fill: var(--color2, #2319dc)" d="M5.749 16.867c3.48-0.749 3-4.912 2.901-5.821-0.171-1.4-1.821-3.851-4.059-3.653-2.813 0.248-3.224 4.32-3.224 4.32-0.383 1.88 0.909 5.901 4.381 5.153zM12.209 9.879c1.92 0 3.472-2.213 3.472-4.947 0-2.72-1.547-4.933-3.467-4.933s-3.481 2.201-3.481 4.935 1.56 4.947 3.48 4.947zM20.489 10.207c2.573 0.347 4.216-2.4 4.549-4.48 0.333-2.067-1.333-4.48-3.147-4.893-1.827-0.421-4.080 2.499-4.307 4.4-0.24 2.333 0.333 4.653 2.893 4.983zM30.667 13.712c0-0.995-0.817-3.991-3.88-3.991-3.060 0-3.48 2.827-3.48 4.827 0 1.907 0.157 4.56 3.98 4.48 3.807-0.093 3.391-4.32 3.391-5.32zM26.8 22.427c0 0-3.98-3.080-6.301-6.4-3.147-4.903-7.62-2.907-9.112-0.421-1.493 2.511-3.813 4.083-4.14 4.503-0.333 0.413-4.8 2.827-3.805 7.227 1 4.4 4.48 4.32 4.48 4.32s2.56 0.253 5.547-0.413 5.547 0.16 5.547 0.16 6.943 2.333 8.864-2.147c1.899-4.493-1.080-6.813-1.080-6.813z"></path>
</symbol>

<symbol id="icon-burger" viewBox="0 0 32 32">
<path fill="#fff" style="fill: var(--color1, #fff)" d="M4 25c0-0.265 0.105-0.52 0.293-0.707s0.442-0.293 0.707-0.293h22c0.265 0 0.52 0.105 0.707 0.293s0.293 0.442 0.293 0.707-0.105 0.52-0.293 0.707c-0.187 0.188-0.442 0.293-0.707 0.293h-22c-0.265 0-0.52-0.105-0.707-0.293s-0.293-0.442-0.293-0.707zM4 19c0-0.265 0.105-0.52 0.293-0.707s0.442-0.293 0.707-0.293h22c0.265 0 0.52 0.105 0.707 0.293s0.293 0.442 0.293 0.707-0.105 0.52-0.293 0.707c-0.187 0.188-0.442 0.293-0.707 0.293h-22c-0.265 0-0.52-0.105-0.707-0.293s-0.293-0.442-0.293-0.707zM4 13c0-0.265 0.105-0.52 0.293-0.707s0.442-0.293 0.707-0.293h22c0.265 0 0.52 0.105 0.707 0.293s0.293 0.442 0.293 0.707-0.105 0.52-0.293 0.707c-0.187 0.188-0.442 0.293-0.707 0.293h-22c-0.265 0-0.52-0.105-0.707-0.293s-0.293-0.442-0.293-0.707zM4 7c0-0.265 0.105-0.52 0.293-0.707s0.442-0.293 0.707-0.293h22c0.265 0 0.52 0.105 0.707 0.293s0.293 0.442 0.293 0.707-0.105 0.52-0.293 0.707c-0.187 0.188-0.442 0.293-0.707 0.293h-22c-0.265 0-0.52-0.105-0.707-0.293s-0.293-0.442-0.293-0.707z"></path>
</symbol>
<symbol id="search" viewBox="0 0 32 32">
<path fill="#92929d" style="fill: var(--color1, #92929d)" d="M23.484 20.688c1.937-2.643 2.804-5.919 2.429-9.174s-1.966-6.248-4.453-8.38c-2.487-2.132-5.688-3.247-8.962-3.121s-6.379 1.484-8.695 3.801c-2.316 2.317-3.671 5.424-3.795 8.698s0.993 6.474 3.127 8.96c2.134 2.486 5.128 4.074 8.383 4.447s6.531-0.497 9.172-2.435h-0.002c0.060 0.080 0.124 0.156 0.196 0.23l7.7 7.7c0.375 0.375 0.884 0.586 1.414 0.586s1.040-0.21 1.415-0.585c0.375-0.375 0.586-0.884 0.586-1.414s-0.21-1.039-0.585-1.415l-7.7-7.7c-0.072-0.072-0.148-0.137-0.23-0.198zM24 13c0 1.445-0.284 2.875-0.837 4.21s-1.363 2.547-2.384 3.569-2.234 1.832-3.569 2.384c-1.335 0.553-2.765 0.837-4.209 0.837s-2.875-0.284-4.21-0.837c-1.335-0.553-2.547-1.363-3.569-2.384s-1.832-2.234-2.385-3.569c-0.553-1.335-0.837-2.765-0.837-4.21 0-2.917 1.159-5.715 3.222-7.778s4.861-3.222 7.778-3.222c2.917 0 5.715 1.159 7.778 3.222s3.222 4.861 3.222 7.778z"></path>
</symbol>
</defs>
</svg>
